<?xml version="1.0" encoding="UTF-8" standalone="no"?>
<!-- Created with Inkscape (http://www.inkscape.org/) -->

<svg
   xmlns:dc="http://purl.org/dc/elements/1.1/"
   xmlns:cc="http://creativecommons.org/ns#"
   xmlns:rdf="http://www.w3.org/1999/02/22-rdf-syntax-ns#"
   xmlns:svg="http://www.w3.org/2000/svg"
   xmlns="http://www.w3.org/2000/svg"
   xmlns:sodipodi="http://sodipodi.sourceforge.net/DTD/sodipodi-0.dtd"
   xmlns:inkscape="http://www.inkscape.org/namespaces/inkscape"
   width="765"
   height="990"
   id="svg3734"
   version="1.1"
   inkscape:version="0.48.5 r10040"
   sodipodi:docname="puce.svg">
  <defs
     id="defs3736" />
  <sodipodi:namedview
     id="base"
     pagecolor="#000000"
     bordercolor="#666666"
     borderopacity="1.0"
     inkscape:pageopacity="0.58431373"
     inkscape:pageshadow="2"
     inkscape:zoom="0.35"
     inkscape:cx="-211.0943"
     inkscape:cy="-44.596578"
     inkscape:document-units="px"
     inkscape:current-layer="layer1"
     showgrid="false"
     inkscape:window-width="1920"
     inkscape:window-height="1040"
     inkscape:window-x="-1"
     inkscape:window-y="-4"
     inkscape:window-maximized="1"
     fit-margin-top="0"
     fit-margin-left="0"
     fit-margin-right="0"
     fit-margin-bottom="0" />
  <metadata
     id="metadata3739">
    <rdf:RDF>
      <cc:Work
         rdf:about="">
        <dc:format>image/svg+xml</dc:format>
        <dc:type
           rdf:resource="http://purl.org/dc/dcmitype/StillImage" />
        <dc:title></dc:title>
      </cc:Work>
    </rdf:RDF>
  </metadata>
  <g
     inkscape:label="Calque 1"
     inkscape:groupmode="layer"
     id="layer1"
     transform="translate(-28.951444,502.23443)">
    <g
       id="g3271"
       transform="matrix(30.369576,0,0,-30.369576,615.55038,73.541533)"
       style="fill:#ffffff;fill-opacity:1">
      <path
         d="m 0,0 c 0.007,0.753 -0.31,1.119 -0.387,1.354 -0.192,0.583 0.147,1.505 -1.505,2.74 -0.67,0.515 -0.846,0.978 -0.95,1.311 -0.018,0.057 -0.04,0.1 -0.064,0.131 -0.141,0.302 -0.416,1.04 -0.09,2.145 0.394,1.333 1.157,1.637 1.333,2.266 0.043,0.196 -0.299,0.35 -0.397,0.375 -0.168,0.042 -0.318,-0.015 -1.108,-1.686 -0.312,-0.689 -0.639,-1.591 -0.157,-2.771 0.131,-0.359 0.17,-0.641 0.261,-0.553 0.279,-0.469 1.858,-2.788 0.953,-4.531 -0.968,-1.864 -4.547,-3.337 -7.024,-1.01 -0.76,0.711 -0.636,1.85 -0.412,2.338 0.225,0.489 1.21,1.833 3.341,1.222 C -5.333,3.046 -4.786,2.466 -4.747,1.57 -4.728,1.089 -5.202,0.69 -5.371,0.542 -5.54,0.394 -5.475,0.289 -5.475,0.289 c 0.087,-0.172 0.327,-0.092 0.423,-0.058 0.096,0.034 0.538,0.158 0.744,0.415 0.207,0.257 0.575,0.901 0.525,1.276 -0.02,0.106 -0.136,0.244 -0.162,0.347 -0.026,0.102 -0.028,0.34 -0.085,0.453 -0.057,0.113 -0.252,0.36 -0.501,0.647 -0.237,0.322 -1.323,1.34 -3.073,1.575 -1.38,0.085 -2.061,-0.394 -2.531,-0.503 -0.47,-0.108 -1.277,-0.104 -1.864,-0.863 -0.193,-0.251 -0.346,-0.288 -0.465,-0.502 -0.119,-0.215 -0.068,-0.458 -0.338,-1.322 -0.079,-0.228 -0.28,-0.763 -0.295,-1.05 -0.015,-0.288 -0.014,-0.465 0.022,-1.078 0.007,-0.207 0.158,-0.356 0.142,-0.759 -0.011,-0.179 0.235,-0.492 0.329,-0.595 0.093,-0.103 0.74,-0.882 0.923,-0.987 0.233,-0.155 0.39,-0.169 0.571,-0.703 0.069,-0.255 0.186,-0.487 1.008,-0.855 0.354,-0.162 0.842,-0.065 1.24,-0.164 0.398,-0.1 0.463,-0.155 0.887,-0.473 0.424,-0.317 0.92,-0.295 1.183,-0.201 0.263,0.095 0.305,0.136 0.653,0.153 0.348,0.016 0.826,-0.032 1.057,0.084 0.23,0.116 0.391,0.371 0.661,0.436 0.269,0.065 1.313,0.291 2.069,0.873 0.186,0.148 0.658,0.834 0.795,1.181 0.136,0.346 0.568,0.622 0.791,0.812 C -0.543,-1.381 -0.007,-0.754 0,0"
         style="fill:#ffffff;fill-opacity:1;fill-rule:nonzero;stroke:none"
         id="path3273"
         inkscape:connector-curvature="0" />
    </g>
  </g>
</svg>
